<?xml version="1.0" encoding="UTF-8" standalone="no"?>
<!-- Created with Inkscape (http://www.inkscape.org/) -->

<svg
   xmlns:dc="http://purl.org/dc/elements/1.1/"
   xmlns:cc="http://creativecommons.org/ns#"
   xmlns:rdf="http://www.w3.org/1999/02/22-rdf-syntax-ns#"
   xmlns:svg="http://www.w3.org/2000/svg"
   xmlns="http://www.w3.org/2000/svg"
   version="1.1"
   width="514.1875"
   height="228.12277"
   id="svg2">
  <defs
     id="defs4" />
  <metadata
     id="metadata7">
    <rdf:RDF>
      <cc:Work
         rdf:about="">
        <dc:format>image/svg+xml</dc:format>
        <dc:type
           rdf:resource="http://purl.org/dc/dcmitype/StillImage" />
        <dc:title></dc:title>
      </cc:Work>
    </rdf:RDF>
  </metadata>
  <g
     transform="translate(-116.15625,-360.43973)"
     id="layer1">
    <path
       d="m 366.1848,360.43973 c -66.04353,0 -119.65355,50.92278 -119.65355,113.62199 0,62.69922 53.61002,113.59453 119.65355,113.59453 66.04353,0 119.65355,-50.89531 119.65355,-113.59453 0,-62.69921 -53.61002,-113.62199 -119.65355,-113.62199 z m 0,7.03099 c 62.04102,0 112.24753,47.69162 112.24753,106.591 0,58.89938 -50.20651,106.56353 -112.24753,106.56353 -62.04102,0 -112.24753,-47.66415 -112.24753,-106.56353 0,-58.89938 50.20651,-106.591 112.24753,-106.591 z"
       id="path2997"
       style="font-size:medium;font-style:normal;font-variant:normal;font-weight:normal;font-stretch:normal;text-indent:0;text-align:start;text-decoration:none;line-height:normal;letter-spacing:normal;word-spacing:normal;text-transform:none;direction:ltr;block-progression:tb;writing-mode:lr-tb;text-anchor:start;baseline-shift:baseline;color:#000000;fill-opacity:1;fill-rule:nonzero;stroke:none;stroke-width:8;marker:none;visibility:visible;display:inline;overflow:visible;enable-background:accumulate;font-family:Sans;-inkscape-font-specification:Sans" />
    <path
       d="m 116.16754,583.6514 514.16765,0"
       id="path3005"
       style="fill:none;stroke:#000000;stroke-width:9.79562855px;stroke-linecap:butt;stroke-linejoin:miter;stroke-opacity:1" />
  </g>
</svg>
